<svg width="186" height="100" viewBox="0 0 186 100" fill="none" xmlns="http://www.w3.org/2000/svg">
<mask id="mask0_124_4305" style="mask-type:luminance" maskUnits="userSpaceOnUse" x="0" y="2" width="186" height="96">
<path d="M186 2.12878H0V97.8715H186V2.12878Z" fill="white"/>
</mask>
<g mask="url(#mask0_124_4305)">
<path d="M150.037 83.447C170.347 80.7336 185.996 63.6483 185.996 42.976C186 20.4151 167.359 2.12878 144.369 2.12878H48.7895C21.8435 2.12878 0 23.5613 0 50.0001C0 76.439 21.8435 97.8715 48.7895 97.8715C51.2952 97.8715 53.7558 97.6855 56.1585 97.3296L150.037 83.447Z" fill="#EE0000"/>
<path d="M140.521 36.9666C140.355 36.6836 140.187 36.4005 140.001 36.1296C138.546 33.8973 136.601 32.1058 134.194 30.7593C131.491 29.255 128.305 28.4987 124.636 28.4987C121.199 28.4987 118.108 29.2307 115.355 30.6946C112.606 32.1545 110.442 34.1885 108.86 36.7968C107.277 39.4091 106.486 42.4865 106.486 46.0411C106.486 49.7736 107.298 52.948 108.926 55.5563C110.554 58.1646 112.73 60.1542 115.458 61.5291C118.186 62.9 121.199 63.5833 124.496 63.5833C132.327 63.5833 136.292 58.2373 136.292 58.2373L142.787 62.7342L142.771 45.4265C142.771 42.2601 141.942 39.4375 140.517 36.9666H140.521ZM131.065 50.4246C130.967 50.639 130.855 50.8412 130.737 51.0433C130.16 52.0543 129.405 52.8591 128.485 53.4656C127.385 54.1855 126.079 54.5453 124.571 54.5453C123.062 54.5453 121.752 54.1855 120.647 53.4656C119.551 52.7458 118.693 51.747 118.067 50.4651C117.449 49.1791 117.144 47.7112 117.144 46.0411C117.144 44.2901 117.465 42.7857 118.108 41.5241C118.743 40.2623 119.629 39.2958 120.754 38.6206C121.875 37.9452 123.149 37.6096 124.571 37.6096C125.992 37.6096 127.196 37.925 128.317 38.5558C129.438 39.1867 130.333 40.1208 131 41.3542C131.441 42.1671 131.729 43.1133 131.878 44.193C131.956 44.7511 131.998 45.3456 131.998 45.9763C131.998 47.6385 131.688 49.1225 131.065 50.4246ZM39.1375 29.3116H46.082V37.8806H39.1375V51.104C39.1375 52.2282 39.3765 52.9803 39.8587 53.3646C40.3409 53.7487 41.1529 53.9387 42.2986 53.9387H42.9045V62.7787H40.7159C36.6811 62.7787 33.6436 61.8122 31.6035 59.8792C29.5634 57.9462 28.5454 54.9781 28.5454 50.9746V37.8846H24.9722V29.3156H28.5454V22.6472L39.1334 21.8061V29.3197L39.1375 29.3116ZM157.406 12.3758V62.7746H146.818V13.2291L157.406 12.3718V12.3758ZM74.7878 30.7633C72.0842 29.259 68.8982 28.5028 65.2302 28.5028C61.7929 28.5028 58.6978 29.2347 55.9488 30.6946C53.1998 32.1585 51.0319 34.1926 49.4493 36.8008C47.8666 39.4091 47.0753 42.4906 47.0753 46.0451C47.0753 49.7776 47.8872 52.948 49.5152 55.5563C51.1431 58.1646 53.3193 60.1542 56.0477 61.5251C58.776 62.896 61.7888 63.5833 65.0901 63.5833C68.5727 63.5833 71.6926 62.8636 74.4417 61.424C77.1906 59.9843 79.3667 57.9503 80.9741 55.3177C82.5773 52.6852 83.381 49.5956 83.381 46.0411C83.381 42.4865 82.6226 39.5992 81.11 36.9666C79.5976 34.3341 77.4874 32.2676 74.7837 30.7593L74.7878 30.7633ZM71.6597 50.4287C71.0414 51.7348 70.1801 52.7458 69.0796 53.4656C67.9792 54.1855 66.6727 54.5453 65.1601 54.5453C63.6476 54.5453 62.3411 54.1855 61.2406 53.4656C60.1403 52.7458 59.2788 51.747 58.6607 50.4651C58.0425 49.1832 57.7334 47.7112 57.7334 46.0451C57.7334 44.2901 58.0548 42.7857 58.6978 41.5241C59.3408 40.2665 60.2227 39.2958 61.3437 38.6246C62.4648 37.9493 63.7383 37.6136 65.1601 37.6136C66.582 37.6136 67.7855 37.9291 68.9065 38.56C70.0276 39.1907 70.9219 40.1248 71.5896 41.3582C72.2531 42.5957 72.587 44.1365 72.587 45.9805C72.587 47.6465 72.2778 49.1306 71.6597 50.4327V50.4287ZM98.5437 29.3116H105.488V37.8806H98.5437V51.104C98.5437 52.2282 98.7827 52.9803 99.265 53.3646C99.7472 53.7487 100.559 53.9387 101.705 53.9387H102.311V62.7787H100.122C96.0874 62.7787 93.0498 61.8122 91.0098 59.8792C88.9697 57.9462 87.9516 54.9781 87.9516 50.9746V37.8846H84.3784V29.3156H87.9516V17.92L98.5396 17.0788V29.3197L98.5437 29.3116Z" fill="white"/>
<path d="M39.6276 82.2822H37.8265L35.6668 76.0667L33.5031 82.2822H31.7021L28.5532 73.0135H30.5275L32.6706 79.4353L34.8879 73.0135H36.4417L38.659 79.4353L40.8022 73.0135H42.7722L39.6234 82.2822H39.6276Z" fill="white"/>
<path d="M46.5516 70.2439C46.5516 70.9314 46.02 71.4329 45.2988 71.4329C44.5775 71.4329 44.0293 70.9314 44.0293 70.2439C44.0293 69.5929 44.5611 69.0347 45.2988 69.0347C46.0364 69.0347 46.5516 69.5929 46.5516 70.2439ZM44.3138 82.2461V73.018H46.2879V82.2461H44.3138Z" fill="white"/>
<path d="M55.2562 72.9813L55.1242 74.8414C54.9717 74.8213 54.7451 74.8213 54.5762 74.8213C52.1857 74.8213 51.0111 76.4591 51.0111 78.9906V82.2458H49.041V73.0177H51.0111V74.9911C51.7695 73.7618 52.9646 72.9086 54.5967 72.9086C54.8235 72.9086 55.013 72.9086 55.2603 72.9813H55.2562Z" fill="white"/>
<path d="M65.2134 78.0966H57.5888C57.7783 79.8071 59.0477 80.8303 60.4325 80.8303C61.4753 80.8303 62.5385 80.531 63.2021 79.2289L64.9661 79.6009C64.1872 81.538 62.518 82.5044 60.4325 82.5044C57.8731 82.5044 55.6353 80.5674 55.6353 77.6478C55.6353 74.728 57.8525 72.7546 60.5067 72.7546C63.1609 72.7546 65.1145 74.6513 65.2093 77.4254V78.0966H65.2134ZM57.6506 76.7216H63.1898C62.8848 75.2134 61.805 74.4693 60.515 74.4693C59.2249 74.4693 57.9555 75.2335 57.6506 76.7216Z" fill="white"/>
<path d="M67.0186 82.2459V68.8486H68.9885V82.2459H67.0186Z" fill="white"/>
<path d="M80.3722 78.0966H72.7476C72.9371 79.8071 74.2065 80.8303 75.5913 80.8303C76.6341 80.8303 77.6973 80.531 78.361 79.2289L80.1249 79.6009C79.346 81.538 77.6809 82.5044 75.5913 82.5044C73.0319 82.5044 70.7939 80.5674 70.7939 77.6478C70.7939 74.728 73.0113 72.7546 75.6697 72.7546C78.328 72.7546 80.2774 74.6513 80.3722 77.4254V78.0966ZM72.8053 76.7216H78.3444C78.0394 75.2134 76.9596 74.4693 75.6697 74.4693C74.3797 74.4693 73.1103 75.2335 72.8053 76.7216Z" fill="white"/>
<path d="M83.3518 79.3621C83.4838 80.4581 84.4729 80.9271 85.7052 80.9271C86.8427 80.9271 87.5639 80.4257 87.5639 79.6978C87.5639 79.1397 87.1641 78.788 86.2945 78.6018L84.2462 78.1934C82.6141 77.8416 81.6868 76.9843 81.6868 75.6822C81.6868 73.9717 83.1458 72.7626 85.4043 72.7626C87.6629 72.7626 89.0271 73.8786 89.3691 75.4234L87.4898 75.8157C87.3373 74.9219 86.5624 74.3073 85.3466 74.3073C84.1308 74.3073 83.6774 74.8653 83.6774 75.5165C83.6774 76.0381 83.9824 76.3737 84.8149 76.5597L87.0529 77.0449C88.5696 77.3604 89.501 78.2338 89.501 79.5401C89.501 81.4771 87.8895 82.5163 85.5361 82.5163C83.4301 82.5163 81.6291 81.6428 81.3818 79.7827L83.3518 79.3742V79.3621Z" fill="white"/>
<path d="M92.3241 79.3621C92.4559 80.4581 93.445 80.9271 94.6774 80.9271C95.8149 80.9271 96.5361 80.4257 96.5361 79.6978C96.5361 79.1397 96.1363 78.788 95.2667 78.6018L93.2184 78.1934C91.5863 77.8416 90.659 76.9843 90.659 75.6822C90.659 73.9717 92.1179 72.7626 94.3766 72.7626C96.6351 72.7626 97.9992 73.8786 98.3413 75.4234L96.4619 75.8157C96.3094 74.9219 95.5346 74.3073 94.3189 74.3073C93.103 74.3073 92.6496 74.8653 92.6496 75.5165C92.6496 76.0381 92.9546 76.3737 93.7871 76.5597L96.0251 77.0449C97.5418 77.3604 98.4732 78.2338 98.4732 79.5401C98.4732 81.4771 96.8617 82.5163 94.5084 82.5163C92.4023 82.5163 90.6013 81.6428 90.354 79.7827L92.3241 79.3742V79.3621Z" fill="white"/>
</g>
</svg>
